<svg xmlns="http://www.w3.org/2000/svg" width="100.0px" height="100px" viewBox="0 0 1000 1000" version="1.1">
<path fill="#000000" stroke="#000000" stroke-width="0.09375" opacity="1.00" d=" M 459.3 39.3 C 463.3 32.8 474.2 33.7 477.9 40.1 C 480.7 45.2 481.4 51.4 480.0 57.0 C 479.5 65.4 474.0 73.1 476.0 81.7 C 481.5 83.2 487.1 84.1 492.7 85.4 C 493.3 99.8 492.3 114.3 493.3 128.7 C 492.9 133.0 495.9 136.1 499.6 137.5 C 518.1 145.1 536.7 152.5 555.4 159.5 C 557.8 160.6 560.9 161.5 561.6 164.4 C 564.8 188.4 555.5 211.3 550.7 234.5 C 546.6 259.2 541.8 283.9 536.6 308.5 C 533.2 326.9 527.3 344.8 524.6 363.3 C 524.7 369.7 527.5 375.7 529.3 381.7 C 535.3 397.9 540.2 414.4 545.2 430.9 C 553.4 462.5 550.2 495.7 545.7 527.6 C 543.3 540.8 541.8 554.3 536.6 566.8 C 532.8 586.5 532.0 606.6 529.3 626.4 C 527.0 640.6 529.3 655.1 525.6 669.1 C 523.4 689.2 521.0 709.3 519.7 729.4 C 518.6 737.6 522.2 749.0 513.0 754.0 C 497.3 762.1 478.9 760.4 461.9 758.9 C 465.8 791.3 463.2 824.2 469.3 856.4 C 479.3 849.6 488.7 841.8 499.7 836.7 C 504.7 834.7 510.2 835.7 515.4 835.5 C 518.9 828.4 531.0 824.7 535.2 832.7 C 536.2 841.3 535.1 850.2 536.4 858.8 C 537.0 864.9 538.2 871.1 536.9 877.1 C 533.9 877.1 530.9 877.0 527.9 877.0 C 524.2 868.9 521.7 860.4 518.2 852.3 C 511.7 852.5 505.3 854.4 499.7 857.7 C 491.1 862.6 482.7 867.6 474.6 873.3 C 486.3 883.4 500.4 890.1 512.8 899.2 C 519.7 904.2 524.3 911.5 530.5 917.2 C 534.7 919.4 541.1 918.4 544.1 922.8 C 545.7 927.9 547.1 933.8 545.1 939.0 C 541.2 950.5 541.2 963.2 535.4 974.0 C 532.1 973.3 528.9 972.6 525.7 971.9 C 525.3 963.1 526.2 954.3 526.2 945.6 C 526.9 939.9 523.0 935.3 519.5 931.5 C 509.5 921.3 500.7 908.6 486.8 903.5 C 479.5 902.8 472.2 902.9 464.9 902.8 C 462.4 907.9 459.5 912.9 458.4 918.5 C 461.7 921.5 465.6 924.6 466.5 929.2 C 467.0 934.9 467.1 940.6 467.2 946.3 C 457.7 948.2 447.1 949.5 438.5 944.2 C 439.2 937.9 438.3 930.7 442.4 925.4 C 444.7 921.9 449.1 919.6 449.0 914.9 C 449.8 910.3 446.7 906.8 444.6 903.1 C 438.2 902.8 431.6 901.4 425.2 902.4 C 414.5 907.6 406.2 916.6 398.3 925.3 C 393.4 929.9 386.9 933.8 385.5 940.9 C 384.0 951.2 379.9 961.4 373.3 969.3 C 367.4 972.3 358.3 967.2 359.4 960.1 C 360.9 953.1 365.9 947.4 367.9 940.7 C 367.5 934.4 365.2 928.1 366.9 921.8 C 369.6 917.5 375.4 918.4 379.8 917.5 C 385.9 909.2 393.0 901.5 400.9 894.9 C 412.2 886.1 426.1 881.4 437.7 872.9 C 429.5 867.6 421.3 862.2 412.9 857.1 C 408.0 853.8 401.9 853.8 396.3 854.0 C 392.2 859.9 390.3 866.9 386.9 873.1 C 383.7 878.5 373.8 876.2 373.3 869.9 C 373.8 864.4 376.9 859.4 378.5 854.2 C 381.4 847.8 376.8 840.9 378.4 834.3 C 380.3 830.6 385.2 829.8 389.0 830.2 C 393.8 830.7 397.0 835.4 402.2 835.2 C 409.5 836.2 416.7 838.0 422.9 842.3 C 429.2 846.9 437.5 845.6 444.8 845.2 C 448.3 822.3 446.4 799.1 447.2 776.0 C 447.2 770.0 449.1 764.4 450.1 758.6 C 433.1 758.4 414.6 760.6 399.3 751.7 C 395.3 749.5 392.8 745.1 392.6 740.6 C 392.2 712.1 390.1 683.7 387.7 655.3 C 389.4 627.5 385.0 599.8 384.0 572.0 C 384.6 563.6 379.0 556.7 378.5 548.6 C 372.8 512.8 370.4 476.0 376.2 440.1 C 380.7 416.1 390.8 393.8 399.2 371.1 C 400.8 367.4 402.0 363.4 401.5 359.4 C 396.5 333.8 389.6 308.5 386.5 282.6 C 383.8 264.7 381.0 246.8 377.7 229.0 C 376.4 222.1 371.6 216.3 370.7 209.2 C 367.2 192.3 366.7 175.1 366.9 157.9 C 388.4 150.6 410.0 143.3 431.2 135.3 C 434.4 134.4 437.1 131.9 436.0 128.0 C 437.5 113.3 437.2 98.5 438.1 83.8 C 445.0 82.2 452.3 82.3 458.8 79.8 C 461.0 75.0 457.9 69.9 457.2 65.0 C 456.0 56.7 454.8 47.1 459.3 39.3 M 464.3 84.9 C 464.0 93.1 464.1 101.3 464.2 109.6 C 465.6 109.8 467.0 110.0 468.4 110.2 C 469.7 102.4 469.9 94.5 470.3 86.7 C 468.3 86.0 466.3 85.4 464.3 84.9 M 387.2 567.9 C 389.0 594.1 388.5 620.6 392.0 646.7 C 393.5 643.2 393.9 639.4 393.5 635.7 C 392.5 613.3 390.8 590.9 389.5 568.5 C 388.9 568.4 387.7 568.1 387.2 567.9 M 398.0 570.1 C 397.4 593.9 398.9 617.8 399.1 641.6 C 405.0 640.2 411.1 639.5 417.1 638.8 C 416.5 616.2 414.1 593.7 412.8 571.2 C 407.8 570.8 402.9 570.5 398.0 570.1 M 417.9 571.0 C 418.7 593.5 420.6 616.0 421.4 638.5 C 422.1 638.7 423.3 639.0 424.0 639.1 C 424.3 616.4 423.7 593.7 422.9 571.0 L 417.9 571.0 M 428.3 571.4 C 429.7 593.9 428.7 616.5 429.0 639.0 C 434.7 639.0 440.3 639.0 446.0 639.0 C 446.5 616.3 445.0 593.6 444.9 570.9 C 439.3 571.1 433.8 571.2 428.3 571.4 M 468.0 571.3 C 468.3 593.9 466.7 616.4 466.9 639.0 C 470.7 639.0 478.2 639.0 482.0 639.0 C 482.0 616.7 482.0 594.4 482.0 572.1 C 477.3 571.9 472.7 571.6 468.0 571.3 M 518.2 582.1 C 517.3 602.2 515.5 622.3 514.4 642.4 C 516.5 643.0 518.6 643.6 520.7 644.2 C 521.9 619.3 524.9 594.5 524.7 569.5 C 517.8 570.4 518.7 577.2 518.2 582.1 M 487.1 573.0 C 486.2 595.4 485.7 617.8 486.0 640.2 C 489.5 640.3 492.9 640.3 496.3 640.1 C 497.4 617.8 497.1 595.4 498.1 573.0 C 495.3 573.0 489.8 573.0 487.1 573.0 M 503.1 573.0 C 502.6 595.3 501.1 617.6 500.9 640.0 C 503.4 640.2 508.4 640.7 510.9 641.0 C 513.3 618.4 513.3 595.7 515.0 573.0 C 511.0 573.0 507.1 573.0 503.1 573.0 M 398.9 644.2 C 399.2 650.1 399.5 656.0 399.9 661.9 C 405.6 663.2 411.2 664.3 417.0 665.4 C 417.0 657.3 417.0 649.2 417.0 641.1 C 411.0 642.0 404.9 643.0 398.9 644.2 M 421.1 642.0 C 421.9 649.9 422.4 657.8 423.3 665.7 C 425.7 658.0 423.7 649.9 424.0 642.0 C 423.3 642.0 421.8 642.0 421.1 642.0 M 429.0 642.0 C 429.0 649.9 429.1 657.8 429.3 665.7 C 434.9 665.8 440.4 665.9 446.0 666.1 C 446.0 658.0 446.0 650.0 446.0 642.0 C 440.3 642.0 434.6 642.0 429.0 642.0 M 467.0 641.9 C 467.0 649.9 467.0 657.9 467.0 666.0 C 471.7 666.4 476.3 666.8 480.9 667.2 C 481.0 658.8 481.2 650.5 481.5 642.3 C 476.7 642.1 471.8 642.0 467.0 641.9 M 486.1 641.9 C 485.8 650.2 485.4 658.6 484.9 667.0 C 488.1 667.0 491.1 666.9 494.3 667.0 C 495.2 658.8 495.3 650.5 495.8 642.3 C 492.6 642.2 489.3 641.9 486.1 641.9 M 501.1 643.0 C 500.6 651.0 500.1 659.1 499.9 667.2 C 502.9 666.8 505.9 666.3 508.9 666.0 C 509.5 658.7 510.0 651.4 510.1 644.1 C 507.1 643.8 504.1 643.3 501.1 643.0 M 514.2 645.9 C 513.9 652.2 513.6 658.5 513.1 664.9 C 515.1 664.2 517.0 663.5 519.0 662.8 C 519.5 658.0 520.0 653.1 520.1 648.3 C 518.2 647.5 516.2 646.7 514.2 645.9 M 391.5 649.5 C 391.3 652.7 392.1 655.9 392.5 659.0 C 393.4 659.0 395.2 659.0 396.1 659.0 C 395.9 654.8 395.7 650.5 395.5 646.3 C 394.1 647.3 392.7 648.2 391.5 649.5 M 391.4 659.7 C 393.3 685.0 393.5 710.5 396.6 735.7 C 397.2 734.0 398.0 732.4 398.1 730.5 C 398.7 708.0 395.7 685.6 395.9 663.0 C 394.4 661.9 392.9 660.8 391.4 659.7 M 399.9 664.3 C 401.4 686.2 401.7 708.2 403.1 730.1 C 407.9 728.7 412.8 727.4 417.7 726.3 C 418.6 707.0 416.9 687.6 416.8 668.3 C 411.2 667.0 405.5 665.7 399.9 664.3 M 513.1 667.2 C 511.7 688.9 510.5 710.6 509.4 732.3 C 512.6 710.4 515.0 688.2 518.1 666.2 C 516.5 666.6 514.8 666.9 513.1 667.2 M 421.0 669.0 C 421.0 688.0 421.0 707.0 421.0 726.0 L 425.6 725.9 C 424.9 706.5 424.8 687.1 423.8 667.8 C 422.8 668.2 421.9 668.6 421.0 669.0 M 430.0 667.8 C 429.6 687.2 430.4 706.6 431.1 726.0 C 436.4 726.0 441.7 726.0 447.1 726.0 C 445.9 707.1 445.9 688.1 446.0 669.1 C 440.7 668.7 435.3 668.2 430.0 667.8 M 467.1 668.8 C 466.1 687.9 465.8 706.9 464.9 726.0 C 468.7 726.0 476.2 726.0 480.0 726.0 C 480.0 707.3 479.6 688.6 480.8 669.9 C 476.2 669.5 471.6 669.1 467.1 668.8 M 485.1 670.0 C 483.9 689.0 484.2 708.0 483.0 727.0 C 485.7 727.0 488.4 727.0 491.1 727.0 C 492.9 707.7 493.8 688.3 494.1 668.9 C 491.0 669.2 488.1 669.7 485.1 670.0 M 499.3 671.2 C 498.0 690.0 497.4 708.8 495.9 727.6 C 499.3 728.4 502.6 729.3 505.9 730.2 C 506.4 709.5 507.9 689.0 508.9 668.4 C 505.7 669.2 502.1 669.2 499.3 671.2 M 431.0 728.3 C 431.0 737.4 431.1 746.6 431.3 755.8 C 437.3 755.9 443.2 755.9 449.2 756.1 C 449.6 751.0 450.3 745.8 449.1 740.8 C 447.7 738.4 445.7 736.6 443.9 734.5 C 445.5 732.5 447.2 730.5 448.9 728.6 C 443.0 728.3 437.0 728.5 431.0 728.3 M 402.8 732.3 C 403.1 738.9 403.5 745.5 403.9 752.1 C 411.7 754.4 419.8 755.6 427.9 755.5 C 427.0 746.6 427.0 737.6 426.9 728.7 C 418.7 729.1 410.6 730.0 402.8 732.3 M 466.2 728.7 C 467.9 730.4 469.6 732.1 470.9 734.2 C 469.6 737.1 467.0 738.9 464.6 740.9 C 463.9 746.2 463.2 751.6 462.7 757.0 C 471.5 757.0 480.2 757.0 488.9 757.0 C 489.3 748.0 490.0 739.1 490.1 730.1 C 482.2 729.5 474.2 729.0 466.2 728.7 M 495.9 730.0 C 495.0 739.1 494.4 748.2 493.9 757.3 C 498.6 756.3 503.2 755.2 507.9 754.1 C 508.2 747.8 508.5 741.4 508.9 735.1 C 504.6 733.3 500.2 731.6 495.9 730.0 M 399.7 749.7 C 399.4 744.8 398.9 740.0 398.1 735.3 C 395.3 739.8 395.9 745.8 399.7 749.7 Z"/>
</svg>